<svg width="100" height="25" viewBox="0 0 100 25" fill="none" xmlns="http://www.w3.org/2000/svg">
<g clip-path="url(#clip0_2674_2664)">
<path d="M18.0404 6.3746C18.0404 2.69559 14.3306 0.124039 9.02034 0.124039C3.71011 0.124039 -0.00195312 2.69559 -0.00195312 6.3746C-0.00195312 9.79225 3.19437 12.2486 7.9003 12.5764V13.943H3.49098C3.20283 13.9559 2.93073 14.0794 2.73135 14.288C2.53198 14.4966 2.42071 14.7741 2.42071 15.0627C2.42071 15.3513 2.53198 15.6288 2.73135 15.8374C2.93073 16.0459 3.20283 16.1695 3.49098 16.1823H7.90252V17.8812H3.49098C3.19452 17.8812 2.91018 17.999 2.70055 18.2088C2.49092 18.4186 2.37314 18.7031 2.37314 18.9997C2.37314 19.2964 2.49092 19.5809 2.70055 19.7907C2.91018 20.0004 3.19452 20.1183 3.49098 20.1183H14.5586C14.855 20.1183 15.1393 20.0004 15.349 19.7907C15.5586 19.5809 15.6764 19.2964 15.6764 18.9997C15.6764 18.7031 15.5586 18.4186 15.349 18.2088C15.1393 17.999 14.855 17.8812 14.5586 17.8812H10.1404V16.1801H14.5519C14.8401 16.1673 15.1122 16.0437 15.3115 15.8352C15.5109 15.6266 15.6222 15.3491 15.6222 15.0605C15.6222 14.7718 15.5109 14.4944 15.3115 14.2858C15.1122 14.0772 14.8401 13.9536 14.5519 13.9408H10.1404V12.5853C14.8463 12.2486 18.0404 9.79225 18.0404 6.3746ZM15.8026 6.3746C15.8026 8.47436 13.4806 10.0514 10.1382 10.3393V2.40986C13.4828 2.70001 15.8048 4.27705 15.8048 6.3746H15.8026ZM2.23591 6.3746C2.23591 4.27705 4.55789 2.70001 7.9003 2.40986V10.3393C4.56011 10.0514 2.23812 8.47436 2.23812 6.3746H2.23591Z" fill="#F9B471"/>
<path d="M26.9763 11.2253C27.2645 11.2125 27.5366 11.0889 27.7359 10.8803C27.9353 10.6718 28.0466 10.3943 28.0466 10.1056C28.0466 9.81703 27.9353 9.53953 27.7359 9.33096C27.5366 9.12239 27.2645 8.99882 26.9763 8.986H22.4674V4.99911C22.4546 4.71077 22.3311 4.43851 22.1226 4.23901C21.9142 4.03951 21.6369 3.92816 21.3485 3.92816C21.06 3.92816 20.7827 4.03951 20.5743 4.23901C20.3658 4.43851 20.2423 4.71077 20.2295 4.99911V14.2155C18.9552 14.7722 17.9325 15.782 17.3592 17.0496C16.7858 18.3171 16.7027 19.7524 17.1257 21.0778C17.5488 22.4032 18.4481 23.5245 19.6495 24.2249C20.851 24.9252 22.2694 25.1548 23.6302 24.8692C24.9911 24.5837 26.1978 23.8033 27.0169 22.679C27.836 21.5547 28.2094 20.1663 28.0647 18.7825C27.92 17.3987 27.2676 16.1178 26.2337 15.1874C25.1998 14.2571 23.8578 13.7434 22.4674 13.7459V11.2253H26.9763ZM25.8696 19.3741C25.8696 20.0443 25.6709 20.6995 25.2988 21.2568C24.9267 21.8141 24.3977 22.2484 23.7789 22.5049C23.1601 22.7614 22.4791 22.8285 21.8222 22.6978C21.1652 22.567 20.5618 22.2443 20.0881 21.7703C19.6145 21.2964 19.2919 20.6926 19.1613 20.0352C19.0306 19.3778 19.0977 18.6964 19.354 18.0772C19.6103 17.458 20.0444 16.9287 20.6013 16.5563C21.1583 16.184 21.8131 15.9852 22.4829 15.9852C23.379 15.9887 24.2372 16.3472 24.8698 16.9823C25.5024 17.6174 25.8579 18.4774 25.8585 19.3741H25.8696Z" fill="#F9B471"/>
<path d="M5.58969 4.99689C5.31739 4.99689 5.0512 5.07769 4.82479 5.22907C4.59837 5.38046 4.4219 5.59562 4.31769 5.84736C4.21349 6.0991 4.18622 6.37611 4.23935 6.64335C4.29247 6.9106 4.4236 7.15608 4.61615 7.34876C4.8087 7.54143 5.05402 7.67264 5.3211 7.7258C5.58817 7.77896 5.865 7.75168 6.11658 7.6474C6.36816 7.54313 6.58318 7.36655 6.73447 7.13999C6.88576 6.91343 6.96649 6.64707 6.96649 6.37459C6.96591 6.00938 6.82067 5.6593 6.56259 5.40106C6.30452 5.14281 5.95467 4.99747 5.58969 4.99689Z" fill="#F9B471"/>
<path d="M12.453 7.75227C13.2134 7.75227 13.8298 7.13546 13.8298 6.37458C13.8298 5.6137 13.2134 4.99689 12.453 4.99689C11.6926 4.99689 11.0762 5.6137 11.0762 6.37458C11.0762 7.13546 11.6926 7.75227 12.453 7.75227Z" fill="#F9B471"/>
<path d="M2.494 21.6266C2.22169 21.6266 1.95549 21.7075 1.72908 21.8588C1.50266 22.0102 1.32621 22.2254 1.222 22.4771C1.11779 22.7289 1.09052 23.0059 1.14364 23.2731C1.19676 23.5404 1.3279 23.7858 1.52045 23.9785C1.713 24.1712 1.95832 24.3024 2.22539 24.3556C2.49246 24.4087 2.76929 24.3814 3.02087 24.2772C3.27245 24.1729 3.48748 23.9963 3.63876 23.7697C3.79005 23.5432 3.8708 23.2768 3.8708 23.0043C3.87022 22.6391 3.72497 22.289 3.4669 22.0308C3.20882 21.7726 2.85897 21.6272 2.494 21.6266Z" fill="#F9B471"/>
<path d="M6.08188 24.382C6.84227 24.382 7.45869 23.7652 7.45869 23.0043C7.45869 22.2435 6.84227 21.6266 6.08188 21.6266C5.3215 21.6266 4.70508 22.2435 4.70508 23.0043C4.70508 23.7652 5.3215 24.382 6.08188 24.382Z" fill="#F9B471"/>
<path d="M9.67173 24.382C10.4321 24.382 11.0485 23.7652 11.0485 23.0043C11.0485 22.2435 10.4321 21.6266 9.67173 21.6266C8.91134 21.6266 8.29492 22.2435 8.29492 23.0043C8.29492 23.7652 8.91134 24.382 9.67173 24.382Z" fill="#F9B471"/>
<path d="M13.2577 24.382C14.0181 24.382 14.6345 23.7652 14.6345 23.0043C14.6345 22.2435 14.0181 21.6266 13.2577 21.6266C12.4973 21.6266 11.8809 22.2435 11.8809 23.0043C11.8809 23.7652 12.4973 24.382 13.2577 24.382Z" fill="#F9B471"/>
<path d="M47.3158 6.3746C47.3158 2.69559 43.606 0.124039 38.2935 0.124039C32.9811 0.124039 29.2734 2.69559 29.2734 6.3746C29.2734 9.79225 32.4698 12.2486 37.1757 12.5764V13.943H32.7642C32.613 13.9363 32.4621 13.9603 32.3205 14.0135C32.1789 14.0668 32.0495 14.1481 31.9402 14.2528C31.8309 14.3574 31.7439 14.4831 31.6844 14.6223C31.625 14.7615 31.5943 14.9113 31.5943 15.0627C31.5943 15.2141 31.625 15.3639 31.6844 15.5031C31.7439 15.6423 31.8309 15.768 31.9402 15.8726C32.0495 15.9772 32.1789 16.0586 32.3205 16.1119C32.4621 16.1651 32.613 16.1891 32.7642 16.1823H37.1757V17.8812H32.7642C32.4677 17.8812 32.1834 17.999 31.9737 18.2088C31.7641 18.4186 31.6463 18.7031 31.6463 18.9997C31.6463 19.2964 31.7641 19.5809 31.9737 19.7907C32.1834 20.0004 32.4677 20.1183 32.7642 20.1183H43.8317C44.1282 20.1183 44.4125 20.0004 44.6222 19.7907C44.8318 19.5809 44.9496 19.2964 44.9496 18.9997C44.9496 18.7031 44.8318 18.4186 44.6222 18.2088C44.4125 17.999 44.1282 17.8812 43.8317 17.8812H39.4113V16.1801H43.8229C43.974 16.1868 44.1249 16.1629 44.2665 16.1096C44.4081 16.0564 44.5375 15.975 44.6468 15.8704C44.7562 15.7658 44.8432 15.64 44.9026 15.5008C44.9621 15.3616 44.9927 15.2118 44.9927 15.0605C44.9927 14.9091 44.9621 14.7593 44.9026 14.6201C44.8432 14.4809 44.7562 14.3552 44.6468 14.2506C44.5375 14.1459 44.4081 14.0645 44.2665 14.0113C44.1249 13.9581 43.974 13.9341 43.8229 13.9408H39.4113V12.5853C44.1173 12.2486 47.3158 9.79225 47.3158 6.3746ZM45.0779 6.3746C45.0779 8.47436 42.7537 10.0514 39.4113 10.3393V2.40986C42.7537 2.70001 45.0779 4.27705 45.0779 6.3746ZM31.5091 6.3746C31.5091 4.27705 33.8333 2.70001 37.1757 2.40986V10.3393C33.8333 10.0514 31.5091 8.47436 31.5091 6.3746Z" fill="#F9B471"/>
<path d="M56.2504 11.2253C56.5386 11.2125 56.8106 11.0889 57.01 10.8804C57.2094 10.6718 57.3207 10.3943 57.3207 10.1057C57.3207 9.81704 57.2094 9.53955 57.01 9.33098C56.8106 9.1224 56.5386 8.99884 56.2504 8.98601H51.7437V4.99913C51.7437 4.70247 51.6259 4.41796 51.4163 4.2082C51.2067 3.99843 50.9223 3.88058 50.6259 3.88058C50.3294 3.88058 50.0451 3.99843 49.8354 4.2082C49.6258 4.41796 49.508 4.70247 49.508 4.99913V14.2155C48.2331 14.771 47.2093 15.7799 46.6347 17.047C46.0602 18.3142 45.9757 19.7495 46.3977 21.0754C46.8196 22.4013 47.718 23.5234 48.919 24.2248C50.1201 24.9262 51.5384 25.1569 52.8996 24.8724C54.2608 24.5878 55.4681 23.8082 56.2881 22.6844C57.108 21.5605 57.4823 20.1723 57.3385 18.7883C57.1947 17.4043 56.543 16.1228 55.5096 15.1918C54.4761 14.2608 53.1343 13.7464 51.7437 13.7481V11.2253H56.2504ZM55.1304 19.3741C55.1304 20.0443 54.9317 20.6995 54.5596 21.2568C54.1875 21.8141 53.6586 22.2485 53.0397 22.505C52.4209 22.7615 51.7399 22.8286 51.083 22.6978C50.426 22.567 49.8226 22.2443 49.349 21.7704C48.8753 21.2964 48.5528 20.6926 48.4221 20.0352C48.2914 19.3778 48.3585 18.6964 48.6148 18.0772C48.8711 17.458 49.3052 16.9287 49.8621 16.5563C50.4191 16.184 51.0739 15.9852 51.7437 15.9852C52.6417 15.9858 53.5028 16.343 54.1378 16.9784C54.7728 17.6138 55.1298 18.4755 55.1304 19.3741Z" fill="#F9B471"/>
<path d="M34.8631 4.99689C34.5908 4.99689 34.3246 5.07769 34.0982 5.22907C33.8718 5.38046 33.6953 5.59562 33.5911 5.84736C33.4869 6.0991 33.4597 6.37611 33.5128 6.64335C33.5659 6.9106 33.697 7.15608 33.8896 7.34876C34.0821 7.54143 34.3275 7.67264 34.5945 7.7258C34.8616 7.77896 35.1384 7.75168 35.39 7.6474C35.6416 7.54313 35.8566 7.36655 36.0079 7.13999C36.1592 6.91343 36.2399 6.64707 36.2399 6.37459C36.2399 6.0092 36.0949 5.65877 35.8367 5.40041C35.5785 5.14204 35.2283 4.99689 34.8631 4.99689Z" fill="#F9B471"/>
<path d="M41.7245 7.75228C41.9968 7.75228 42.263 7.67149 42.4894 7.52011C42.7158 7.36873 42.8923 7.15355 42.9965 6.90181C43.1007 6.65007 43.1279 6.37307 43.0748 6.10582C43.0217 5.83858 42.8906 5.59309 42.698 5.40042C42.5055 5.20774 42.2601 5.07653 41.9931 5.02338C41.726 4.97022 41.4492 4.9975 41.1976 5.10177C40.946 5.20605 40.731 5.38263 40.5797 5.60919C40.4284 5.83575 40.3477 6.10212 40.3477 6.3746C40.3474 6.5556 40.3828 6.73488 40.4519 6.90216C40.521 7.06944 40.6224 7.22143 40.7503 7.34942C40.8782 7.47741 41.0301 7.57888 41.1972 7.64801C41.3644 7.71714 41.5436 7.75257 41.7245 7.75228Z" fill="#F9B471"/>
<path d="M31.7635 21.6266C31.4912 21.6266 31.225 21.7075 30.9986 21.8588C30.7722 22.0102 30.5957 22.2254 30.4915 22.4771C30.3873 22.7289 30.3601 23.0059 30.4132 23.2731C30.4663 23.5404 30.5974 23.7858 30.79 23.9785C30.9825 24.1712 31.2279 24.3024 31.4949 24.3556C31.762 24.4087 32.0388 24.3814 32.2904 24.2772C32.542 24.1729 32.757 23.9963 32.9083 23.7697C33.0596 23.5432 33.1403 23.2768 33.1403 23.0043C33.1403 22.6389 32.9953 22.2885 32.7371 22.0302C32.4789 21.7718 32.1287 21.6266 31.7635 21.6266Z" fill="#F9B471"/>
<path d="M35.3573 24.382C36.1177 24.382 36.7341 23.7652 36.7341 23.0043C36.7341 22.2435 36.1177 21.6266 35.3573 21.6266C34.5969 21.6266 33.9805 22.2435 33.9805 23.0043C33.9805 23.7652 34.5969 24.382 35.3573 24.382Z" fill="#F9B471"/>
<path d="M38.9432 24.382C39.7036 24.382 40.32 23.7652 40.32 23.0043C40.32 22.2435 39.7036 21.6266 38.9432 21.6266C38.1828 21.6266 37.5664 22.2435 37.5664 23.0043C37.5664 23.7652 38.1828 24.382 38.9432 24.382Z" fill="#F9B471"/>
<path d="M42.5311 24.382C43.2915 24.382 43.9079 23.7652 43.9079 23.0043C43.9079 22.2435 43.2915 21.6266 42.5311 21.6266C41.7707 21.6266 41.1543 22.2435 41.1543 23.0043C41.1543 23.7652 41.7707 24.382 42.5311 24.382Z" fill="#F9B471"/>
<path d="M61.8213 5.88953C61.9505 5.96041 62.0927 6.00474 62.2393 6.01992C62.3859 6.03509 62.5341 6.0208 62.6752 5.97789C62.8162 5.93497 62.9472 5.86429 63.0606 5.77001C63.174 5.67572 63.2674 5.55972 63.3353 5.42882L64.2207 3.77426H70.8613C71.1577 3.77426 71.4421 3.65641 71.6517 3.44665C71.8613 3.23688 71.9791 2.95237 71.9791 2.65572C71.9791 2.35906 71.8613 2.07455 71.6517 1.86479C71.4421 1.65502 71.1577 1.53717 70.8613 1.53717H65.4094C65.4713 1.40453 65.5065 1.26099 65.513 1.11474C65.5195 0.968494 65.4971 0.822399 65.4471 0.684802C65.3972 0.547204 65.3207 0.420799 65.2219 0.312802C65.1231 0.204805 65.004 0.11733 64.8715 0.055375C64.6038 -0.0697493 64.2974 -0.0833345 64.0197 0.0176031C63.742 0.118541 63.5157 0.325738 63.3907 0.59361L61.3697 4.3745C61.2296 4.63548 61.1984 4.94136 61.283 5.22526C61.3677 5.50916 61.5612 5.74799 61.8213 5.88953Z" fill="#F9B471"/>
<path d="M76.8281 5.73005C76.8277 6.00316 76.9083 6.27025 77.0596 6.49751C77.211 6.72477 77.4263 6.90198 77.6784 7.0067C77.9305 7.11142 78.2079 7.13893 78.4756 7.08576C78.7434 7.03259 78.9893 6.90112 79.1823 6.708C79.3752 6.51488 79.5066 6.2688 79.5598 6.00092C79.6129 5.73304 79.5854 5.45541 79.4808 5.20317C79.3761 4.95093 79.199 4.73545 78.9719 4.58399C78.7448 4.43253 78.4779 4.35192 78.205 4.35236C77.8398 4.35236 77.4896 4.4975 77.2314 4.75587C76.9732 5.01424 76.8281 5.36466 76.8281 5.73005Z" fill="#F9B471"/>
<path d="M73.0221 5.88953C73.1513 5.96041 73.2935 6.00474 73.4401 6.01992C73.5867 6.03509 73.7349 6.0208 73.8759 5.97789C74.017 5.93497 74.148 5.86429 74.2614 5.77001C74.3747 5.67572 74.4681 5.55972 74.5361 5.42882L75.4215 3.77426H82.062C82.3585 3.77426 82.6428 3.65641 82.8525 3.44665C83.0621 3.23688 83.1799 2.95237 83.1799 2.65572C83.1799 2.35906 83.0621 2.07455 82.8525 1.86479C82.6428 1.65502 82.3585 1.53717 82.062 1.53717H76.5969C76.7219 1.2693 76.7355 0.962692 76.6346 0.684802C76.5338 0.406912 76.3267 0.180499 76.059 0.055375C75.7913 -0.0697493 75.4849 -0.0833345 75.2072 0.0176031C74.9295 0.118541 74.7032 0.325738 74.5782 0.59361L72.5594 4.3745C72.4902 4.50433 72.4472 4.64655 72.433 4.79303C72.4188 4.9395 72.4335 5.08735 72.4765 5.22809C72.5195 5.36883 72.5898 5.4997 72.6834 5.6132C72.777 5.7267 72.8921 5.82061 73.0221 5.88953Z" fill="#F9B471"/>
<path d="M68.276 6.25745C68.567 5.5545 68.2334 4.74857 67.5308 4.4574C66.8283 4.16622 66.0229 4.50006 65.732 5.20302C65.441 5.90597 65.7746 6.71187 66.4771 7.00305C67.1796 7.29423 67.985 6.96041 68.276 6.25745Z" fill="#F9B471"/>
<path d="M84.0161 9.90963L72.5058 6.78657C72.3147 6.73341 72.1126 6.73341 71.9215 6.78657L60.4112 9.90963C60.2638 9.94284 60.1246 10.0056 60.002 10.094C59.8794 10.1825 59.776 10.2948 59.698 10.4243C59.62 10.5538 59.5689 10.6978 59.5479 10.8475C59.527 10.9973 59.5365 11.1497 59.576 11.2957C59.6154 11.4416 59.684 11.5781 59.7775 11.6969C59.8711 11.8156 59.9877 11.9142 60.1203 11.9867C60.2529 12.0591 60.3989 12.104 60.5493 12.1186C60.6997 12.1331 60.8515 12.1171 60.9956 12.0714L72.2203 9.02587L83.445 12.0714C83.5405 12.0958 83.6387 12.1084 83.7372 12.1091C84.009 12.1102 84.2718 12.0122 84.4766 11.8335C84.6814 11.6547 84.8141 11.4075 84.8499 11.1379C84.8857 10.8684 84.8222 10.595 84.6712 10.3689C84.5201 10.1429 84.292 9.97958 84.0294 9.90963H84.0161Z" fill="#F9B471"/>
<path d="M71.3859 22.898L68.9798 21.507C70.5935 20.8426 71.6161 19.5535 71.6161 17.9631C71.6161 15.6286 69.4026 13.9342 66.328 13.9342C63.2535 13.9342 61.0377 15.6286 61.0377 17.9631C61.0377 19.5468 62.0604 20.8426 63.674 21.507L61.2701 22.898C61.143 22.9715 61.0315 23.0693 60.9421 23.1858C60.8527 23.3024 60.7871 23.4354 60.7491 23.5773C60.7111 23.7192 60.7013 23.8672 60.7205 24.0129C60.7396 24.1586 60.7873 24.2991 60.8606 24.4263C60.934 24.5536 61.0318 24.6651 61.1483 24.7546C61.2647 24.844 61.3977 24.9097 61.5395 24.9477C61.6813 24.9858 61.8293 24.9955 61.9748 24.9763C62.1204 24.9572 62.2608 24.9095 62.388 24.8361L66.328 22.5591L70.2659 24.8361C70.393 24.9097 70.5335 24.9575 70.6791 24.9768C70.8247 24.9961 70.9728 24.9865 71.1147 24.9485C71.2566 24.9106 71.3897 24.845 71.5063 24.7556C71.6229 24.6662 71.7208 24.5547 71.7943 24.4274C71.8678 24.3002 71.9156 24.1597 71.9349 24.014C71.9542 23.8682 71.9446 23.7201 71.9067 23.5781C71.8687 23.4361 71.8032 23.3029 71.7139 23.1862C71.6245 23.0695 71.5131 22.9716 71.3859 22.898ZM63.2734 17.9698C63.2734 16.9332 64.5572 16.1801 66.328 16.1801C68.0988 16.1801 69.3805 16.9332 69.3805 17.9698C69.3805 19.0064 68.0966 19.7617 66.328 19.7617C64.5594 19.7617 63.2712 19.0086 63.2712 17.9698H63.2734Z" fill="#F9B471"/>
<path d="M83.7462 22.898L81.3467 21.507C82.9604 20.8426 83.983 19.5535 83.983 17.9631C83.983 15.6286 81.7584 13.9342 78.6927 13.9342C75.627 13.9342 73.4024 15.6286 73.4024 17.9631C73.4024 19.5468 74.4273 20.8426 76.0409 21.507L73.6348 22.898C73.5077 22.9716 73.3962 23.0695 73.3069 23.1862C73.2175 23.3029 73.152 23.4361 73.1141 23.5781C73.0762 23.7201 73.0666 23.8682 73.0858 24.014C73.1051 24.1597 73.1529 24.3002 73.2264 24.4274C73.3 24.5547 73.3979 24.6662 73.5145 24.7556C73.6311 24.845 73.7642 24.9106 73.9061 24.9485C74.048 24.9865 74.196 24.9961 74.3416 24.9768C74.4873 24.9575 74.6277 24.9097 74.7549 24.8361L78.6905 22.5591L82.6306 24.8361C82.8856 24.9603 83.1783 24.9828 83.4494 24.8991C83.7204 24.8154 83.9495 24.6317 84.0902 24.3852C84.2309 24.1388 84.2728 23.8481 84.2073 23.5719C84.1417 23.2958 83.9738 23.0549 83.7373 22.898H83.7462ZM75.6358 17.9698C75.6358 16.9332 76.9197 16.1801 78.6883 16.1801C80.4569 16.1801 81.7407 16.9332 81.7407 17.9698C81.7407 19.0064 80.4569 19.7617 78.6883 19.7617C76.9197 19.7617 75.6358 19.0086 75.6358 17.9698Z" fill="#F9B471"/>
<path d="M76.6838 13.077C76.8349 13.0837 76.9858 13.0597 77.1274 13.0065C77.2691 12.9533 77.3984 12.8719 77.5078 12.7673C77.6171 12.6626 77.7041 12.5369 77.7635 12.3977C77.8229 12.2585 77.8536 12.1087 77.8536 11.9573C77.8536 11.806 77.8229 11.6562 77.7635 11.517C77.7041 11.3778 77.6171 11.2521 77.5078 11.1474C77.3984 11.0428 77.2691 10.9614 77.1274 10.9082C76.9858 10.8549 76.8349 10.831 76.6838 10.8377H67.7323C67.5812 10.831 67.4303 10.8549 67.2887 10.9082C67.1471 10.9614 67.0177 11.0428 66.9084 11.1474C66.799 11.2521 66.712 11.3778 66.6526 11.517C66.5931 11.6562 66.5625 11.806 66.5625 11.9573C66.5625 12.1087 66.5931 12.2585 66.6526 12.3977C66.712 12.5369 66.799 12.6626 66.9084 12.7673C67.0177 12.8719 67.1471 12.9533 67.2887 13.0065C67.4303 13.0597 67.5812 13.0837 67.7323 13.077H76.6838Z" fill="#F9B471"/>
<path d="M94.7959 1.35111C94.0145 3.89608 91.3627 12.4258 90.0391 15.5489C90.0391 15.5489 93.2309 17.6442 93.2309 23.0619L95.0195 24.3599L96.808 23.0619C96.808 17.6442 99.9999 15.5489 99.9999 15.5489C98.6718 12.4214 96.0156 3.89608 95.2408 1.35111C95.2264 1.30333 95.1969 1.26147 95.1569 1.23172C95.1168 1.20197 95.0683 1.1859 95.0184 1.1859C94.9685 1.1859 94.9199 1.20197 94.8799 1.23172C94.8398 1.26147 94.8104 1.30333 94.7959 1.35111Z" fill="#D6D6D6"/>
<path d="M95.0194 15.0483C95.7248 15.0483 96.2966 14.4761 96.2966 13.7703C96.2966 13.0644 95.7248 12.4922 95.0194 12.4922C94.314 12.4922 93.7422 13.0644 93.7422 13.7703C93.7422 14.4761 94.314 15.0483 95.0194 15.0483Z" fill="#4D4C52"/>
<path d="M95.0195 13.7703V1.37991" stroke="#4D4C52" stroke-width="0.534274" stroke-linecap="round" stroke-linejoin="round"/>
<path d="M96.7697 22.1671H93.2679C92.4868 22.1671 91.8535 22.8008 91.8535 23.5824V23.5846C91.8535 24.3663 92.4868 25 93.2679 25H96.7697C97.5509 25 98.1842 24.3663 98.1842 23.5846V23.5824C98.1842 22.8008 97.5509 22.1671 96.7697 22.1671Z" fill="#51A8BC"/>
</g>
<defs>
<clipPath id="clip0_2674_2664">
<rect width="100" height="25" fill="white"/>
</clipPath>
</defs>
</svg>
