<svg width="17" height="17" viewBox="0 0 17 17" fill="none" xmlns="http://www.w3.org/2000/svg">
<path fill-rule="evenodd" clip-rule="evenodd" d="M10.9762 0.726809C11.0284 0.674426 11.0905 0.632865 11.1588 0.604508C11.2272 0.576151 11.3004 0.561554 11.3744 0.561554C11.4484 0.561554 11.5217 0.576151 11.59 0.604508C11.6583 0.632865 11.7204 0.674426 11.7727 0.726809L16.2727 5.22681C16.325 5.27906 16.3666 5.34113 16.395 5.40947C16.4233 5.47781 16.4379 5.55107 16.4379 5.62506C16.4379 5.69905 16.4233 5.77231 16.395 5.84065C16.3666 5.90899 16.325 5.97106 16.2727 6.02331L14.1329 8.16306L13.2003 11.8902C13.1294 12.174 12.9859 12.4345 12.7839 12.6461C12.582 12.8577 12.3285 13.0132 12.0483 13.0973L0.410156 16.5893L3.90216 4.95006C3.98633 4.67023 4.14172 4.41705 4.35312 4.21531C4.56453 4.01357 4.82469 3.87018 5.10816 3.79918L8.83528 2.86768L10.9762 0.726809ZM8.95116 3.99831L5.38153 4.89043C5.28677 4.91408 5.19981 4.962 5.12919 5.02946C5.05857 5.09692 5.00674 5.18161 4.97878 5.27518L2.08753 14.9108L11.7254 12.0196C11.8184 11.9914 11.9026 11.9396 11.9696 11.8692C12.0366 11.7988 12.0843 11.7122 12.1079 11.6179L13.0012 8.04718L8.95116 3.99718V3.99831Z" fill="#94989B"/>
</svg>
